<svg width="11" height="10" viewBox="0 0 11 10" fill="none" xmlns="http://www.w3.org/2000/svg">
<path d="M1.36922 8.83607L0.832436 7.76293C0.796865 7.69174 0.791019 7.60934 0.816184 7.53385C0.841349 7.45835 0.895464 7.39594 0.966633 7.36034L6.28833 4.69927L0.966633 2.03905C0.895464 2.00344 0.841349 1.94103 0.816184 1.86554C0.791019 1.79004 0.796865 1.70765 0.832436 1.63646L1.36922 0.563314C1.40483 0.492145 1.46724 0.438028 1.54273 0.412863C1.61822 0.387698 1.70062 0.393545 1.77181 0.429117L10.3134 4.69927L1.77181 8.97027C1.70062 9.00584 1.61822 9.01169 1.54273 8.98652C1.46724 8.96136 1.40483 8.90724 1.36922 8.83607Z" fill="#FF7300"/>
</svg>
