<svg width="15" height="15" viewBox="0 0 15 15" fill="none" xmlns="http://www.w3.org/2000/svg">
<path d="M14.4246 13.4526L10.5138 9.54181C11.2464 8.53508 11.6273 7.31519 11.5976 6.07048C11.5294 3.0356 9.06138 0.567144 6.02609 0.502374C2.78294 0.431254 0.129496 3.08471 0.200616 6.32786C0.267079 9.36316 2.73426 11.8312 5.76913 11.8994C7.01391 11.9291 8.23383 11.5481 9.24045 10.8152L13.1512 14.7259C13.2074 14.782 13.2835 14.8135 13.3629 14.8135C13.4422 14.8135 13.5183 14.782 13.5745 14.7259L14.4233 13.8793C14.4516 13.8515 14.4742 13.8183 14.4896 13.7817C14.505 13.7452 14.513 13.7059 14.5132 13.6662C14.5133 13.6265 14.5055 13.5872 14.4903 13.5505C14.4751 13.5138 14.4528 13.4805 14.4246 13.4526ZM5.89909 10.0998C5.12769 10.0998 4.37362 9.87101 3.73223 9.44244C3.09085 9.01386 2.59095 8.40471 2.29577 7.69202C2.00059 6.97934 1.92338 6.19512 2.0739 5.43855C2.22443 4.68198 2.59592 3.98704 3.14141 3.44161C3.6869 2.89617 4.38188 2.52475 5.13846 2.37431C5.89505 2.22387 6.67925 2.30117 7.39191 2.59643C8.10456 2.89169 8.71365 3.39165 9.14216 4.03308C9.57066 4.67452 9.79933 5.42862 9.79925 6.20001C9.79813 7.23402 9.38684 8.22535 8.65565 8.95646C7.92446 9.68758 6.93309 10.0988 5.89909 10.0998Z" fill="#FF7300"/>
</svg>
